<svg xmlns="http://www.w3.org/2000/svg" width="22" height="22" fill="none"><path fill="#fff" d="M11 6.757 15.243 11 11 15.242 6.758 11z"/><path fill="url(#ai-studio_svg__a)" d="M9.549 3.545a1.428 1.428 0 0 1 .039-.44C9.765 2.37 10.38 2 10.995 2c.614 0 1.23.369 1.406 1.106l.02.083a8.664 8.664 0 0 0 6.376 6.388c-.404 1.806-2.894 2.244-4.711 1.45a9.672 9.672 0 0 1-4.537-7.482Z"/><path fill="url(#ai-studio_svg__b)" d="M18.454 9.553c.148-.011.296.004.44.039.738.177 1.106.792 1.106 1.406 0 .615-.369 1.23-1.106 1.407l-.083.02a8.664 8.664 0 0 0-6.388 6.376c-1.806-.404-2.244-2.894-1.45-4.711a9.672 9.672 0 0 1 7.481-4.537Z"/><path fill="url(#ai-studio_svg__c)" d="M12.442 18.454a1.43 1.43 0 0 1-.04.44c-.176.738-.791 1.106-1.406 1.106-.615 0-1.23-.369-1.406-1.106l-.02-.083a8.664 8.664 0 0 0-6.376-6.388c.404-1.806 2.894-2.244 4.71-1.45a9.672 9.672 0 0 1 4.538 7.481Z"/><path fill="url(#ai-studio_svg__d)" d="M9.557 3.274c-.012.09-.015.18-.008.271a9.618 9.618 0 0 0 1.45 4.405 9.671 9.671 0 0 1-7.454 4.492 1.43 1.43 0 0 1-.44-.039C2.37 12.226 2 11.612 2 10.997c0-.615.369-1.23 1.106-1.407l.083-.02a8.664 8.664 0 0 0 6.368-6.296Z"/><defs><linearGradient id="ai-studio_svg__a" x1="9.545" x2="20.374" y1="2" y2="11.475" gradientUnits="userSpaceOnUse"><stop offset=".061" stop-color="#0FBFAB"/><stop offset=".817" stop-color="#018374"/></linearGradient><linearGradient id="ai-studio_svg__b" x1="20" x2="10.525" y1="9.549" y2="20.378" gradientUnits="userSpaceOnUse"><stop offset=".061" stop-color="#0FBFAB"/><stop offset=".817" stop-color="#018374"/></linearGradient><linearGradient id="ai-studio_svg__c" x1="12.445" x2="1.616" y1="20" y2="10.525" gradientUnits="userSpaceOnUse"><stop offset=".061" stop-color="#0FBFAB"/><stop offset=".817" stop-color="#018374"/></linearGradient><linearGradient id="ai-studio_svg__d" x1="2" x2="11.475" y1="12.446" y2="1.617" gradientUnits="userSpaceOnUse"><stop offset=".061" stop-color="#0FBFAB"/><stop offset=".817" stop-color="#018374"/></linearGradient></defs></svg>