<svg xmlns="http://www.w3.org/2000/svg" xmlns:xlink="http://www.w3.org/1999/xlink" version="1.1" style="" xml:space="preserve" width="193.03550207706303" height="188.30177442668798"><rect id="backgroundrect" width="100%" height="100%" x="0" y="0" fill="none" stroke="none" class="" style=""></rect>
















<g class="currentLayer" style=""><title>Layer 1</title><path d="M12.64275074005127,94.15088748931885 c0,46.249 37.626,83.875 83.875,83.875 s83.875,-37.626 83.875,-83.875 S142.76775074005127,10.275887489318848 96.51775074005127,10.275887489318848 S12.64275074005127,47.901887489318845 12.64275074005127,94.15088748931885 zM96.51775074005127,163.02688748931885 C58.53975074005127,163.02688748931885 27.64275074005127,132.12988748931883 27.64275074005127,94.15088748931885 c0,-16.292 5.698,-31.272 15.191,-43.078 l96.762,96.762 C127.78975074005128,157.32788748931884 112.81075074005128,163.02688748931885 96.51775074005127,163.02688748931885 zM165.39275074005127,94.15088748931885 c0,16.292 -5.698,31.272 -15.19,43.078 L53.43975074005127,40.46688748931885 C65.24575074005128,30.973887489318848 80.22575074005127,25.275887489318848 96.51775074005127,25.275887489318848 C134.49575074005128,25.275887489318848 165.39275074005127,56.172887489318846 165.39275074005127,94.15088748931885 z" id="svg_1" class="" fill="#eb1a1a" fill-opacity="1"></path><g id="svg_2" class="">
</g><g id="svg_3" class="">
</g><g id="svg_4" class="">
</g><g id="svg_5" class="">
</g><g id="svg_6" class="">
</g><g id="svg_7" class="">
</g><g id="svg_8" class="">
</g><g id="svg_9" class="">
</g><g id="svg_10" class="">
</g><g id="svg_11" class="">
</g><g id="svg_12" class="">
</g><g id="svg_13" class="">
</g><g id="svg_14" class="">
</g><g id="svg_15" class="">
</g><g id="svg_16" class="">
</g></g></svg>